<?xml version="1.0" standalone="no"?>
<!DOCTYPE svg PUBLIC "-//W3C//DTD SVG 20010904//EN"
 "http://www.w3.org/TR/2001/REC-SVG-20010904/DTD/svg10.dtd">
<svg version="1.0" xmlns="http://www.w3.org/2000/svg"
 width="260.000000pt" height="260.000000pt" viewBox="0 0 260.000000 260.000000"
 preserveAspectRatio="xMidYMid meet">
<metadata>
Created by potrace 1.14, written by Peter Selinger 2001-2017
</metadata>
<g transform="translate(0.000000,260.000000) scale(0.100000,-0.100000)"
fill="#000000" stroke="none">
<path d="M1241 2516 c-39 -11 -97 -65 -113 -104 -28 -71 -11 -148 43 -204 93
-94 253 -58 301 67 56 144 -81 287 -231 241z"/>
<path d="M839 2035 c-129 -32 -198 -163 -155 -294 23 -72 21 -98 -15 -133 -29
-29 -33 -30 -82 -23 -103 16 -171 10 -230 -19 -106 -52 -167 -147 -169 -263
-1 -168 126 -296 297 -297 109 0 149 23 278 162 68 73 113 94 202 94 79 0 104
-10 129 -53 28 -47 20 -91 -27 -146 -30 -35 -75 -52 -154 -59 -124 -9 -195
-54 -227 -144 -54 -149 46 -298 202 -301 158 -4 251 133 214 314 -25 125 34
192 179 203 81 6 120 19 166 58 98 82 98 250 0 332 -98 82 -216 74 -323 -24
-100 -90 -130 -104 -222 -103 -53 0 -70 5 -98 26 -38 29 -69 83 -79 138 -6 32
-3 40 23 67 29 29 34 30 117 30 93 0 128 11 178 59 88 81 92 227 9 314 -54 57
-138 82 -213 62z"/>
<path d="M1671 2002 c-39 -6 -97 -48 -122 -88 -35 -58 -33 -140 6 -195 107
-151 338 -81 338 102 0 114 -105 200 -222 181z"/>
<path d="M2066 1440 c-15 -5 -41 -23 -57 -41 -92 -104 -7 -264 130 -244 35 5
54 16 82 45 109 114 -2 285 -155 240z"/>
<path d="M1666 962 c-37 -8 -94 -51 -117 -88 -35 -58 -33 -140 6 -195 85 -120
253 -108 320 21 68 131 -62 293 -209 262z"/>
<path d="M1256 439 c-56 -13 -95 -46 -121 -101 -66 -143 60 -297 210 -257 137
37 186 200 90 304 -47 52 -107 70 -179 54z"/>
</g>
</svg>
