<?xml version="1.0" standalone="no"?><!DOCTYPE svg PUBLIC "-//W3C//DTD SVG 1.1//EN" "http://www.w3.org/Graphics/SVG/1.1/DTD/svg11.dtd"><svg t="1701063337285" class="icon" viewBox="0 0 1024 1024" version="1.1" xmlns="http://www.w3.org/2000/svg" p-id="4092" xmlns:xlink="http://www.w3.org/1999/xlink" width="16" height="16"><path d="M385.28 0L369.92 81.984a408.704 408.704 0 0 0-177.472 102.016l-78.016-27.52-96.512 167.04 62.016 53.504C71.488 410.24 64 443.968 64 480s7.488 69.76 16 103.04l-62.016 53.44 96.512 167.04 78.016-27.52a408.704 408.704 0 0 0 177.472 102.016L385.28 960h193.28l15.424-83.008a415.04 415.04 0 0 0 174.72-102.016l80.32 28.544 96.704-167.04-64.96-56C888.96 547.968 896 515.008 896 480c0-35.008-7.04-68.032-15.232-100.48l64.96-56-96.448-167.04-80.512 28.544a415.04 415.04 0 0 0-174.72-102.016L578.432 0z m53.248 64h86.464l12.992 68.48 20.48 4.48a350.72 350.72 0 0 1 180.48 105.6l14.336 15.424 66.944-23.488 43.52 75.008-53.76 46.016 6.272 20.224c10.24 33.024 15.744 67.776 15.744 104.256 0 36.48-5.504 71.488-15.744 104.256l-6.272 19.968 53.76 46.08-43.52 75.2-66.944-23.488-14.272 15.744a352 352 0 0 1-180.48 105.216l-20.48 4.48L524.928 896H438.528l-13.056-67.776-20.48-4.48a350.528 350.528 0 0 1-183.488-105.216l-14.016-15.552-64.256 22.528-43.52-75.264 51.264-43.712-6.464-20.032A348.992 348.992 0 0 1 128 480c0-37.248 5.76-72.768 16.512-106.496l6.464-20.032-51.2-43.968 43.52-75.008 64.192 22.528 14.016-15.552A350.528 350.528 0 0 1 404.992 136.32l20.48-4.48zM288 320C235.264 320 192 363.264 192 416V640h64V575.488h64V640h64V416c0-44.224-33.28-76.032-73.984-87.04A34.048 34.048 0 0 0 288 320zM448 320v320h64V512h32c40.256 0 68.48-28.48 82.56-64H640v-32C640 363.264 596.736 320 544 320z m256 0v320h64V320zM288 384c17.984 0 32 14.016 32 32v95.488H256V416c0-17.984 14.016-32 32-32zM512 384h32c17.728 0 32 14.272 32 32s-14.272 32-32 32H512z" fill="#495af6" p-id="4093"></path></svg>